# xmcd
#
# Track frame offsets: 
#        150
#        4148
#        19682
#        45382
#        64359
#        76172
#        84967
#        113599
#        131779
#        147543
#        161361
#        179905
#        198211
#        216576
#        233275
#        251088
#        283429
#
# Disc length: 4543 seconds
#
# Revision: 0
# Processed by: cddbd v1.5.1PL2 Copyright (c) Steve Scherf et al.
# Submitted via: ExactAudioCopy v0.95b3
#
DISCID=f011bd11
DTITLE=Les Gourmets - Trop jeune pour mûrir
DYEAR=2006
DGENRE=Rap
TTITLE0=Entrée
TTITLE1=Réactif
TTITLE2=Trop jeune pour mûrir
TTITLE3=Le chant des cannibales
TTITLE4=Dirty dancing (ft. Arom (la Spirale))
TTITLE5=Chinese food
TTITLE6=Intervalles de sécurité
TTITLE7=Fistfuck and vanity
TTITLE8=L'animal t'observe (ft. Manimal and Fayce le Virus)
TTITLE9=Corps electra
TTITLE10=Burnes out (Nokia remix)
TTITLE11=Rest in pisse
TTITLE12=La roue de la fortune (ft. Tekilatex and Fayce le Virus)
TTITLE13=Al dente (ft. Diktat)
TTITLE14=Lyon (ft. Vice Renard)
TTITLE15=On reste amis?
TTITLE16=Bonus
EXTD=
EXTT0=
EXTT1=
EXTT2=
EXTT3=
EXTT4=
EXTT5=
EXTT6=
EXTT7=
EXTT8=
EXTT9=
EXTT10=
EXTT11=
EXTT12=
EXTT13=
EXTT14=
EXTT15=
EXTT16=
PLAYORDER=
